<svg width="24" height="24" viewBox="0 0 24 24" fill="none" xmlns="http://www.w3.org/2000/svg">
<path d="M12 2C11.2044 2 10.4413 2.31607 9.87868 2.87868C9.31607 3.44129 9 4.20435 9 5V12C9 12.7956 9.31607 13.5587 9.87868 14.1213C10.4413 14.6839 11.2044 15 12 15C12.7956 15 13.5587 14.6839 14.1213 14.1213C14.6839 13.5587 15 12.7956 15 12V5C15 4.20435 14.6839 3.44129 14.1213 2.87868C13.5587 2.31607 12.7956 2 12 2Z" stroke="#EFEEE2" stroke-width="2" stroke-linecap="round" stroke-linejoin="round"/>
<path d="M19 10V12C19 13.8565 18.2625 15.637 16.9497 16.9497C15.637 18.2625 13.8565 19 12 19C10.1435 19 8.36301 18.2625 7.05025 16.9497C5.7375 15.637 5 13.8565 5 12V10" stroke="#EFEEE2" stroke-width="2" stroke-linecap="round" stroke-linejoin="round"/>
<path d="M12 19V22" stroke="#EFEEE2" stroke-width="2" stroke-linecap="round" stroke-linejoin="round"/>
<g clip-path="url(#clip0_4909_1193)">
<path d="M18.2419 2.93753C18.2308 2.89427 18.2082 2.85479 18.1766 2.8232C18.145 2.79161 18.1056 2.76907 18.0623 2.75791L17.2954 2.56016C17.2824 2.55644 17.2708 2.54856 17.2626 2.53771C17.2544 2.52686 17.25 2.51363 17.25 2.50003C17.25 2.48643 17.2544 2.4732 17.2626 2.46235C17.2708 2.4515 17.2824 2.44362 17.2954 2.43991L18.0623 2.24203C18.1056 2.23088 18.145 2.20835 18.1766 2.17679C18.2082 2.14522 18.2308 2.10577 18.2419 2.06253L18.4397 1.29566C18.4434 1.28252 18.4512 1.27095 18.4621 1.26271C18.473 1.25446 18.4862 1.25 18.4999 1.25C18.5135 1.25 18.5268 1.25446 18.5376 1.26271C18.5485 1.27095 18.5564 1.28252 18.5601 1.29566L18.7577 2.06253C18.7688 2.10579 18.7914 2.14527 18.823 2.17686C18.8546 2.20845 18.8941 2.231 18.9373 2.24216L19.7042 2.43978C19.7174 2.44342 19.729 2.45128 19.7373 2.46217C19.7456 2.47305 19.7501 2.48635 19.7501 2.50003C19.7501 2.51371 19.7456 2.52701 19.7373 2.5379C19.729 2.54878 19.7174 2.55664 19.7042 2.56028L18.9373 2.75791C18.8941 2.76907 18.8546 2.79161 18.823 2.8232C18.7914 2.85479 18.7688 2.89427 18.7577 2.93753L18.5599 3.70441C18.5563 3.71754 18.5484 3.72911 18.5375 3.73736C18.5267 3.7456 18.5134 3.75006 18.4997 3.75006C18.4861 3.75006 18.4728 3.7456 18.462 3.73736C18.4511 3.72911 18.4432 3.71754 18.4396 3.70441L18.2419 2.93753Z" stroke="#EFEEE2" stroke-width="0.25" stroke-linecap="round" stroke-linejoin="round"/>
<path d="M19.5 1.375V1.875" stroke="#EFEEE2" stroke-width="0.25" stroke-linecap="round" stroke-linejoin="round"/>
<path d="M19.75 1.625H19.25" stroke="#EFEEE2" stroke-width="0.25" stroke-linecap="round" stroke-linejoin="round"/>
<path d="M17.5 3.125V3.375" stroke="#EFEEE2" stroke-width="0.25" stroke-linecap="round" stroke-linejoin="round"/>
<path d="M17.625 3.25H17.375" stroke="#EFEEE2" stroke-width="0.25" stroke-linecap="round" stroke-linejoin="round"/>
</g>
<defs>
<clipPath id="clip0_4909_1193">
<rect width="3" height="3" fill="white" transform="translate(17 1)"/>
</clipPath>
</defs>
</svg>
