
<svg width="24" height="27" viewBox="0 0 24 27" fill="none" xmlns="http://www.w3.org/2000/svg">
<path d="M12 5C11.2044 5 10.4413 5.31607 9.87868 5.87868C9.31607 6.44129 9 7.20435 9 8V15C9 15.7956 9.31607 16.5587 9.87868 17.1213C10.4413 17.6839 11.2044 18 12 18C12.7956 18 13.5587 17.6839 14.1213 17.1213C14.6839 16.5587 15 15.7956 15 15V8C15 7.20435 14.6839 6.44129 14.1213 5.87868C13.5587 5.31607 12.7956 5 12 5Z" stroke="#EFEEE2" stroke-width="2" stroke-linecap="round" stroke-linejoin="round"/>
<path d="M19 13V15C19 16.8565 18.2625 18.637 16.9497 19.9497C15.637 21.2625 13.8565 22 12 22C10.1435 22 8.36301 21.2625 7.05025 19.9497C5.7375 18.637 5 16.8565 5 15V13" stroke="#EFEEE2" stroke-width="2" stroke-linecap="round" stroke-linejoin="round"/>
<path d="M12 22V25" stroke="#EFEEE2" stroke-width="2" stroke-linecap="round" stroke-linejoin="round"/>
<g clip-path="url(#clip0_4909_1193)">
<path d="M20.4839 3.87506C20.4615 3.78854 20.4165 3.70959 20.3533 3.64641C20.2901 3.58323 20.2111 3.53813 20.1246 3.51581L18.5909 3.12031C18.5647 3.11289 18.5417 3.09713 18.5253 3.07542C18.5089 3.05372 18.5 3.02726 18.5 3.00006C18.5 2.97286 18.5089 2.9464 18.5253 2.9247C18.5417 2.903 18.5647 2.88724 18.5909 2.87981L20.1246 2.48406C20.2111 2.46176 20.29 2.41671 20.3532 2.35357C20.4164 2.29044 20.4615 2.21153 20.4839 2.12506L20.8794 0.591312C20.8867 0.565042 20.9025 0.541898 20.9242 0.525411C20.9459 0.508924 20.9725 0.5 20.9997 0.5C21.027 0.5 21.0536 0.508924 21.0753 0.525411C21.097 0.541898 21.1128 0.565042 21.1201 0.591312L21.5154 2.12506C21.5377 2.21158 21.5828 2.29054 21.646 2.35372C21.7091 2.4169 21.7881 2.46199 21.8746 2.48431L23.4084 2.87956C23.4347 2.88684 23.458 2.90256 23.4746 2.92433C23.4912 2.9461 23.5001 2.9727 23.5001 3.00006C23.5001 3.02742 23.4912 3.05403 23.4746 3.07579C23.458 3.09756 23.4347 3.11329 23.4084 3.12056L21.8746 3.51581C21.7881 3.53813 21.7091 3.58323 21.646 3.64641C21.5828 3.70959 21.5377 3.78854 21.5154 3.87506L21.1199 5.40881C21.1125 5.43508 21.0968 5.45823 21.075 5.47471C21.0533 5.4912 21.0268 5.50012 20.9995 5.50012C20.9722 5.50012 20.9457 5.4912 20.9239 5.47471C20.9022 5.45823 20.8865 5.43508 20.8791 5.40881L20.4839 3.87506Z" stroke="#EFEEE2" stroke-width="0.5" stroke-linecap="round" stroke-linejoin="round"/>
<path d="M23 0.75V1.75" stroke="#EFEEE2" stroke-width="0.5" stroke-linecap="round" stroke-linejoin="round"/>
<path d="M23.5 1.25H22.5" stroke="#EFEEE2" stroke-width="0.5" stroke-linecap="round" stroke-linejoin="round"/>
<path d="M19 4.25V4.75" stroke="#EFEEE2" stroke-width="0.5" stroke-linecap="round" stroke-linejoin="round"/>
<path d="M19.25 4.5H18.75" stroke="#EFEEE2" stroke-width="0.5" stroke-linecap="round" stroke-linejoin="round"/>
</g>
<defs>
<clipPath id="clip0_4909_1193">
<rect width="6" height="6" fill="white" transform="translate(18)"/>
</clipPath>
</defs>
</svg>
